<?xml version="1.0" encoding="iso-8859-1"?>
<!-- Generator: Adobe Illustrator 19.0.0, SVG Export Plug-In . SVG Version: 6.00 Build 0)  -->
<svg version="1.1" id="Layer_1" xmlns="http://www.w3.org/2000/svg" xmlns:xlink="http://www.w3.org/1999/xlink" x="0px" y="0px"
	 viewBox="0 0 495 495" style="enable-background:new 0 0 495 495;" xml:space="preserve">
<g>
	<path style="fill:#6D2C93;" d="M199.64,341.58v-47.04l-81.44,47.04V153.42l81.44,47.04v-47.04l47.86,27.644V0
		C110.81,0,0,110.81,0,247.5S110.81,495,247.5,495V313.936L199.64,341.58z"/>
	<path style="fill:#3D1952;" d="M247.5,0v181.064l74.3,42.916V145h55v205h-55v-78.98l-74.3,42.916V495
		C384.19,495,495,384.19,495,247.5S384.19,0,247.5,0z"/>
	<polygon style="fill:#9CDD05;" points="118.2,247.5 118.2,341.58 199.64,294.54 199.64,341.58 247.5,313.936 321.8,271.02 
		321.8,350 376.8,350 376.8,247.5 	"/>
	<polygon style="fill:#B2FA09;" points="199.64,200.46 118.2,153.42 118.2,247.5 376.8,247.5 376.8,145 321.8,145 321.8,223.98 
		247.5,181.064 199.64,153.42 	"/>
</g>
<g>
</g>
<g>
</g>
<g>
</g>
<g>
</g>
<g>
</g>
<g>
</g>
<g>
</g>
<g>
</g>
<g>
</g>
<g>
</g>
<g>
</g>
<g>
</g>
<g>
</g>
<g>
</g>
<g>
</g>
</svg>
