<?xml version="1.0" encoding="iso-8859-1"?>
<!-- Generator: Adobe Illustrator 19.0.0, SVG Export Plug-In . SVG Version: 6.00 Build 0)  -->
<svg version="1.1" id="Layer_1" xmlns="http://www.w3.org/2000/svg" xmlns:xlink="http://www.w3.org/1999/xlink" x="0px" y="0px"
	 viewBox="0 0 495 495" style="enable-background:new 0 0 495 495;" xml:space="preserve">
<g>
	<path style="fill:#6D2C93;" d="M173.2,271.02V350h-55V145h55v78.98l74.3-42.916V0C110.81,0,0,110.81,0,247.5S110.81,495,247.5,495
		V313.936L173.2,271.02z"/>
	<path style="fill:#3D1952;" d="M247.5,0v181.064l47.86-27.644v47.04l81.44-47.04v188.16l-81.44-47.04v47.04l-47.86-27.644V495
		C384.19,495,495,384.19,495,247.5S384.19,0,247.5,0z"/>
	<polygon style="fill:#9CDD05;" points="118.2,247.5 118.2,350 173.2,350 173.2,271.02 247.5,313.936 295.36,341.58 295.36,294.54 
		376.8,341.58 376.8,247.5 	"/>
	<polygon style="fill:#B2FA09;" points="173.2,145 118.2,145 118.2,247.5 376.8,247.5 376.8,153.42 295.36,200.46 295.36,153.42 
		247.5,181.064 173.2,223.98 	"/>
</g>
<g>
</g>
<g>
</g>
<g>
</g>
<g>
</g>
<g>
</g>
<g>
</g>
<g>
</g>
<g>
</g>
<g>
</g>
<g>
</g>
<g>
</g>
<g>
</g>
<g>
</g>
<g>
</g>
<g>
</g>
</svg>
